<mxfile host="app.diagrams.net" agent="Mozilla/5.0 (Windows NT 10.0; Win64; x64) AppleWebKit/537.36 (KHTML, like Gecko) Chrome/131.0.0.0 Safari/537.36" version="24.8.6">
  <diagram name="Side-1" id="8OrAdYbBXp9oCwXvnZ2c">
    <mxGraphModel dx="1500" dy="794" grid="1" gridSize="10" guides="1" tooltips="1" connect="1" arrows="1" fold="1" page="1" pageScale="1" pageWidth="827" pageHeight="1169" math="0" shadow="0">
      <root>
        <mxCell id="0" />
        <mxCell id="1" parent="0" />
        <mxCell id="QxHdlr45TzsjBveYO2BA-14" value="" style="edgeStyle=orthogonalEdgeStyle;rounded=0;orthogonalLoop=1;jettySize=auto;html=1;" edge="1" parent="1" source="QxHdlr45TzsjBveYO2BA-1" target="QxHdlr45TzsjBveYO2BA-12">
          <mxGeometry relative="1" as="geometry" />
        </mxCell>
        <mxCell id="QxHdlr45TzsjBveYO2BA-1" value="Start Sampling" style="ellipse;whiteSpace=wrap;html=1;" vertex="1" parent="1">
          <mxGeometry x="200" y="30" width="120" height="80" as="geometry" />
        </mxCell>
        <mxCell id="QxHdlr45TzsjBveYO2BA-5" value="" style="edgeStyle=orthogonalEdgeStyle;rounded=0;orthogonalLoop=1;jettySize=auto;html=1;" edge="1" parent="1" source="QxHdlr45TzsjBveYO2BA-2" target="QxHdlr45TzsjBveYO2BA-4">
          <mxGeometry relative="1" as="geometry" />
        </mxCell>
        <mxCell id="QxHdlr45TzsjBveYO2BA-2" value="Sample &lt;b&gt;3&lt;/b&gt;&amp;nbsp;complete &quot;current&quot; waveforms" style="rounded=0;whiteSpace=wrap;html=1;" vertex="1" parent="1">
          <mxGeometry x="200" y="210" width="120" height="60" as="geometry" />
        </mxCell>
        <mxCell id="QxHdlr45TzsjBveYO2BA-9" value="" style="edgeStyle=orthogonalEdgeStyle;rounded=0;orthogonalLoop=1;jettySize=auto;html=1;" edge="1" parent="1" source="QxHdlr45TzsjBveYO2BA-4" target="QxHdlr45TzsjBveYO2BA-8">
          <mxGeometry relative="1" as="geometry" />
        </mxCell>
        <mxCell id="QxHdlr45TzsjBveYO2BA-17" value="" style="edgeStyle=orthogonalEdgeStyle;rounded=0;orthogonalLoop=1;jettySize=auto;html=1;" edge="1" parent="1" source="QxHdlr45TzsjBveYO2BA-4" target="QxHdlr45TzsjBveYO2BA-16">
          <mxGeometry relative="1" as="geometry" />
        </mxCell>
        <mxCell id="QxHdlr45TzsjBveYO2BA-4" value="Are the waveforms saturated?" style="rhombus;whiteSpace=wrap;html=1;" vertex="1" parent="1">
          <mxGeometry x="200" y="290" width="120" height="120" as="geometry" />
        </mxCell>
        <mxCell id="QxHdlr45TzsjBveYO2BA-10" style="edgeStyle=orthogonalEdgeStyle;rounded=0;orthogonalLoop=1;jettySize=auto;html=1;entryX=1;entryY=0.5;entryDx=0;entryDy=0;" edge="1" parent="1" source="QxHdlr45TzsjBveYO2BA-8" target="QxHdlr45TzsjBveYO2BA-2">
          <mxGeometry relative="1" as="geometry">
            <Array as="points">
              <mxPoint x="410" y="240" />
            </Array>
          </mxGeometry>
        </mxCell>
        <mxCell id="QxHdlr45TzsjBveYO2BA-8" value="Adjust range resistors&lt;div&gt;and current PGA&lt;/div&gt;" style="rounded=0;whiteSpace=wrap;html=1;" vertex="1" parent="1">
          <mxGeometry x="350" y="320" width="120" height="60" as="geometry" />
        </mxCell>
        <mxCell id="QxHdlr45TzsjBveYO2BA-11" value="No" style="text;html=1;align=center;verticalAlign=middle;whiteSpace=wrap;rounded=0;" vertex="1" parent="1">
          <mxGeometry x="300" y="320" width="60" height="30" as="geometry" />
        </mxCell>
        <mxCell id="QxHdlr45TzsjBveYO2BA-13" value="" style="edgeStyle=orthogonalEdgeStyle;rounded=0;orthogonalLoop=1;jettySize=auto;html=1;" edge="1" parent="1" source="QxHdlr45TzsjBveYO2BA-12" target="QxHdlr45TzsjBveYO2BA-2">
          <mxGeometry relative="1" as="geometry" />
        </mxCell>
        <mxCell id="QxHdlr45TzsjBveYO2BA-12" value="Set PGAs and range resistors to minimum" style="rounded=0;whiteSpace=wrap;html=1;" vertex="1" parent="1">
          <mxGeometry x="200" y="130" width="120" height="60" as="geometry" />
        </mxCell>
        <mxCell id="QxHdlr45TzsjBveYO2BA-15" value="Yes" style="text;html=1;align=center;verticalAlign=middle;whiteSpace=wrap;rounded=0;" vertex="1" parent="1">
          <mxGeometry x="250" y="410" width="60" height="30" as="geometry" />
        </mxCell>
        <mxCell id="QxHdlr45TzsjBveYO2BA-19" value="" style="edgeStyle=orthogonalEdgeStyle;rounded=0;orthogonalLoop=1;jettySize=auto;html=1;" edge="1" parent="1" source="QxHdlr45TzsjBveYO2BA-16" target="QxHdlr45TzsjBveYO2BA-18">
          <mxGeometry relative="1" as="geometry" />
        </mxCell>
        <mxCell id="QxHdlr45TzsjBveYO2BA-16" value="Sample 3 complete &quot;voltage&quot; and &quot;current&quot; waveforms" style="rounded=0;whiteSpace=wrap;html=1;" vertex="1" parent="1">
          <mxGeometry x="200" y="440" width="120" height="60" as="geometry" />
        </mxCell>
        <mxCell id="QxHdlr45TzsjBveYO2BA-37" style="edgeStyle=orthogonalEdgeStyle;rounded=0;orthogonalLoop=1;jettySize=auto;html=1;entryX=0;entryY=0.5;entryDx=0;entryDy=0;" edge="1" parent="1" source="QxHdlr45TzsjBveYO2BA-18" target="QxHdlr45TzsjBveYO2BA-23">
          <mxGeometry relative="1" as="geometry" />
        </mxCell>
        <mxCell id="QxHdlr45TzsjBveYO2BA-18" value="Set &quot;current&quot; PGA and &quot;voltage&quot; PGA" style="rounded=0;whiteSpace=wrap;html=1;" vertex="1" parent="1">
          <mxGeometry x="200" y="530" width="120" height="60" as="geometry" />
        </mxCell>
        <mxCell id="QxHdlr45TzsjBveYO2BA-20" value="Sampling system is using optimum settings for PGAs and range resistors" style="text;html=1;align=center;verticalAlign=middle;whiteSpace=wrap;rounded=0;" vertex="1" parent="1">
          <mxGeometry x="360" y="480" width="110" height="35" as="geometry" />
        </mxCell>
        <mxCell id="QxHdlr45TzsjBveYO2BA-22" value="" style="endArrow=none;dashed=1;html=1;dashPattern=1 3;strokeWidth=2;rounded=0;" edge="1" parent="1">
          <mxGeometry width="50" height="50" relative="1" as="geometry">
            <mxPoint x="330" y="530" as="sourcePoint" />
            <mxPoint x="360" y="500" as="targetPoint" />
          </mxGeometry>
        </mxCell>
        <mxCell id="QxHdlr45TzsjBveYO2BA-38" value="" style="edgeStyle=orthogonalEdgeStyle;rounded=0;orthogonalLoop=1;jettySize=auto;html=1;" edge="1" parent="1" source="QxHdlr45TzsjBveYO2BA-23" target="QxHdlr45TzsjBveYO2BA-25">
          <mxGeometry relative="1" as="geometry" />
        </mxCell>
        <mxCell id="QxHdlr45TzsjBveYO2BA-23" value="Set Sample Size to user defined sample size and start sampling" style="rounded=0;whiteSpace=wrap;html=1;" vertex="1" parent="1">
          <mxGeometry x="500" y="530" width="120" height="60" as="geometry" />
        </mxCell>
        <mxCell id="QxHdlr45TzsjBveYO2BA-39" value="" style="edgeStyle=orthogonalEdgeStyle;rounded=0;orthogonalLoop=1;jettySize=auto;html=1;" edge="1" parent="1" source="QxHdlr45TzsjBveYO2BA-25" target="QxHdlr45TzsjBveYO2BA-27">
          <mxGeometry relative="1" as="geometry" />
        </mxCell>
        <mxCell id="QxHdlr45TzsjBveYO2BA-25" value="Sampling is complete. MCU retrieves samples from sample control" style="rounded=0;whiteSpace=wrap;html=1;" vertex="1" parent="1">
          <mxGeometry x="500" y="440" width="120" height="60" as="geometry" />
        </mxCell>
        <mxCell id="QxHdlr45TzsjBveYO2BA-40" value="" style="edgeStyle=orthogonalEdgeStyle;rounded=0;orthogonalLoop=1;jettySize=auto;html=1;" edge="1" parent="1" source="QxHdlr45TzsjBveYO2BA-27" target="QxHdlr45TzsjBveYO2BA-29">
          <mxGeometry relative="1" as="geometry" />
        </mxCell>
        <mxCell id="QxHdlr45TzsjBveYO2BA-27" value="Apply DFT on samples and calculate impedance" style="rounded=0;whiteSpace=wrap;html=1;" vertex="1" parent="1">
          <mxGeometry x="500" y="350" width="120" height="60" as="geometry" />
        </mxCell>
        <mxCell id="QxHdlr45TzsjBveYO2BA-29" value="Calculate derived DUT parameters and display to user" style="rounded=0;whiteSpace=wrap;html=1;" vertex="1" parent="1">
          <mxGeometry x="500" y="260" width="120" height="60" as="geometry" />
        </mxCell>
        <mxCell id="QxHdlr45TzsjBveYO2BA-35" value="Find best settings for PGA and range resistors" style="text;html=1;align=center;verticalAlign=middle;whiteSpace=wrap;rounded=0;" vertex="1" parent="1">
          <mxGeometry x="340" y="170" width="60" height="30" as="geometry" />
        </mxCell>
        <mxCell id="QxHdlr45TzsjBveYO2BA-36" value="" style="endArrow=none;dashed=1;html=1;dashPattern=1 3;strokeWidth=2;rounded=0;" edge="1" parent="1">
          <mxGeometry width="50" height="50" relative="1" as="geometry">
            <mxPoint x="330" y="170" as="sourcePoint" />
            <mxPoint x="350" y="180" as="targetPoint" />
          </mxGeometry>
        </mxCell>
      </root>
    </mxGraphModel>
  </diagram>
</mxfile>
